<?xml version="1.0" encoding="UTF-8"?>
<svg id="Artwork" xmlns="http://www.w3.org/2000/svg" width="172.43" height="64.363" version="1.1" viewBox="0 0 172.43 64.363">
  <!-- Generator: Adobe Illustrator 29.4.0, SVG Export Plug-In . SVG Version: 2.1.0 Build 152)  -->
  <path d="M51.931,46.83c-.078.223-1.328,4.531-4.375,8.982-2.631,3.85-5.363,7.685-9.67,7.764-4.228.08-5.59-2.51-10.422-2.51s-6.35,2.432-10.348,2.59c-4.154.156-7.322-4.162-9.973-7.996-5.428-7.844-9.568-22.162-4-31.82,2.758-4.803,7.701-7.842,13.064-7.92,4.084-.076,7.93,2.742,10.426,2.742s7.17-3.393,12.088-2.894c2.059.088,7.84.828,11.553,6.264-.295.188-6.898,4.029-6.826,12.017.086,9.562,8.385,12.742,8.482,12.781ZM35.5,10.584c2.211-2.674,3.693-6.387,3.287-10.084-3.178.117-7.027,2.115-9.303,4.785-2.045,2.363-3.838,6.144-3.352,9.766,3.541.275,7.166-1.801,9.367-4.467Z"/>
  <g>
    <path d="M73.444,18.037h-5.504v-2.402h13.783v2.402h-5.49v15.564h-2.789v-15.564Z"/>
    <path d="M80.136,27.101v-.012c0-4.097,2.365-6.836,6.038-6.836s5.927,2.64,5.927,6.574v.909h-9.275c.05,2.478,1.406,3.922,3.548,3.922,1.594,0,2.652-.821,2.988-1.806l.038-.1h2.552l-.024.137c-.424,2.08-2.44,3.973-5.615,3.973-3.848,0-6.176-2.627-6.176-6.762ZM82.863,25.832h6.574c-.225-2.266-1.494-3.374-3.25-3.374-1.743,0-3.088,1.183-3.324,3.374Z"/>
    <path d="M93.85,27.04v-.013c0-4.146,2.44-6.773,6.176-6.773,3.375,0,5.417,2.166,5.641,4.632l.013.087h-2.565l-.024-.1c-.286-1.282-1.282-2.365-3.038-2.365-2.092,0-3.449,1.743-3.449,4.545v.012c0,2.864,1.382,4.545,3.462,4.545,1.655,0,2.714-.959,3.038-2.378l.012-.1h2.59l-.012.087c-.287,2.627-2.479,4.645-5.628,4.645-3.823,0-6.214-2.627-6.214-6.823Z"/>
    <path d="M107.963,15.634h2.689v7.022h.062c.697-1.52,2.104-2.403,4.06-2.403,2.801,0,4.644,2.092,4.644,5.254v8.094h-2.689v-7.583c0-2.166-1.096-3.461-2.988-3.461-1.854,0-3.088,1.419-3.088,3.461v7.583h-2.689V15.634Z"/>
    <path d="M122.276,20.502h2.689v1.979h.062c.685-1.332,2.029-2.229,4.009-2.229,2.877,0,4.532,1.855,4.532,4.868v8.479h-2.701v-7.969c0-1.967-.922-3.075-2.789-3.075-1.893,0-3.113,1.369-3.113,3.411v7.633h-2.689v-13.099Z"/>
    <path d="M136.302,16.941c0-.858.697-1.556,1.568-1.556.885,0,1.569.697,1.569,1.556,0,.848-.685,1.545-1.569,1.545-.871,0-1.568-.697-1.568-1.545ZM136.526,20.502h2.689v13.099h-2.689v-13.099Z"/>
    <path d="M141.662,27.04v-.013c0-4.146,2.44-6.773,6.176-6.773,3.375,0,5.417,2.166,5.641,4.632l.013.087h-2.565l-.024-.1c-.286-1.282-1.282-2.365-3.038-2.365-2.092,0-3.449,1.743-3.449,4.545v.012c0,2.864,1.382,4.545,3.462,4.545,1.655,0,2.714-.959,3.038-2.378l.012-.1h2.59l-.012.087c-.287,2.627-2.479,4.645-5.628,4.645-3.823,0-6.214-2.627-6.214-6.823Z"/>
    <path d="M155.153,29.878v-.025c0-2.278,1.768-3.673,4.868-3.859l3.562-.212v-.983c0-1.444-.935-2.316-2.603-2.316-1.557,0-2.516.734-2.739,1.781l-.025.111h-2.54l.013-.137c.187-2.254,2.142-3.984,5.366-3.984,3.2,0,5.229,1.693,5.229,4.32v9.027h-2.701v-2.066h-.051c-.759,1.406-2.278,2.303-4.009,2.303-2.614,0-4.37-1.605-4.37-3.959ZM160.257,31.683c1.893,0,3.325-1.282,3.325-2.988v-1.021l-3.2.199c-1.619.1-2.516.81-2.516,1.917v.025c0,1.146.946,1.867,2.391,1.867Z"/>
    <path d="M169.241,15.634h2.689v17.967h-2.689V15.634Z"/>
    <path d="M70.261,45.634h6.687c3.523,0,5.964,2.365,5.964,5.889v.025c0,3.512-2.44,5.914-5.964,5.914h-3.897v6.139h-2.789v-17.967ZM73.05,47.988v7.134h3.2c2.428,0,3.822-1.308,3.822-3.561v-.025c0-2.241-1.395-3.548-3.822-3.548h-3.2Z"/>
    <path d="M83.727,59.878v-.025c0-2.278,1.768-3.673,4.868-3.859l3.561-.212v-.983c0-1.444-.934-2.316-2.602-2.316-1.557,0-2.516.734-2.739,1.781l-.025.111h-2.54l.013-.137c.187-2.254,2.142-3.984,5.366-3.984,3.2,0,5.229,1.693,5.229,4.32v9.027h-2.702v-2.066h-.05c-.759,1.406-2.278,2.303-4.009,2.303-2.615,0-4.37-1.605-4.37-3.959ZM88.832,61.683c1.893,0,3.324-1.282,3.324-2.988v-1.021l-3.199.199c-1.619.1-2.516.81-2.516,1.917v.025c0,1.146.946,1.867,2.391,1.867Z"/>
    <path d="M97.715,50.502h2.689v2.241h.062c.423-1.531,1.519-2.49,3.013-2.49.386,0,.723.062.934.1v2.503c-.211-.087-.685-.149-1.207-.149-1.731,0-2.802,1.133-2.802,3.088v7.807h-2.689v-13.099Z"/>
    <path d="M107.67,60.152v-7.508h-1.88v-2.142h1.88v-3.411h2.752v3.411h2.453v2.142h-2.453v7.346c0,1.333.598,1.731,1.73,1.731.287,0,.523-.025.723-.05v2.079c-.312.05-.822.112-1.37.112-2.59,0-3.835-1.096-3.835-3.711Z"/>
    <path d="M115.345,50.502h2.689v1.979h.062c.685-1.332,2.029-2.229,4.01-2.229,2.876,0,4.532,1.855,4.532,4.868v8.479h-2.702v-7.969c0-1.967-.922-3.075-2.789-3.075-1.893,0-3.113,1.369-3.113,3.411v7.633h-2.689v-13.099Z"/>
    <path d="M128.643,57.101v-.012c0-4.097,2.366-6.836,6.039-6.836s5.927,2.64,5.927,6.574v.909h-9.276c.05,2.478,1.407,3.922,3.549,3.922,1.594,0,2.652-.821,2.988-1.806l.037-.1h2.553l-.024.137c-.424,2.08-2.44,3.973-5.616,3.973-3.847,0-6.176-2.627-6.176-6.762ZM131.371,55.832h6.574c-.225-2.266-1.494-3.374-3.25-3.374-1.743,0-3.088,1.183-3.324,3.374Z"/>
    <path d="M142.944,50.502h2.689v2.241h.062c.424-1.531,1.52-2.49,3.014-2.49.386,0,.722.062.934.1v2.503c-.212-.087-.685-.149-1.208-.149-1.73,0-2.801,1.133-2.801,3.088v7.807h-2.689v-13.099Z"/>
  </g>
</svg>